<svg width="30" height="20" viewBox="0 0 30 20" fill="none" xmlns="http://www.w3.org/2000/svg">
<path d="M11.38 18.375C10.35 19.38 8.93 20 7.5 20C6.424 20 5.368 19.787 4.415 19.313C3.459 18.839 2.628 18.146 1.965 17.326C0.640001 15.684 5.68248e-07 13.5 7.43094e-07 11.5C9.78611e-07 8.806 0.904001 6.128 2.608 4.044C4.315 1.959 6.761 0.509 9.408 0.00900046C9.953 -0.0949996 10.213 0.646999 9.766 0.924999C8.728 1.573 8.032 2.778 8 4.001C7.983 4.64 8.132 5.307 8.388 5.927C8.642 6.548 9.002 7.138 9.408 7.711C10.11 8.704 10.954 9.644 11.668 10.734C12.384 11.827 13 13.11 13 14.5C13 16.01 12.415 17.365 11.38 18.375Z" fill="#B04252"/>
<path d="M28.38 18.375C27.35 19.38 25.93 20 24.5 20C23.424 20 22.368 19.787 21.415 19.313C20.459 18.839 19.628 18.146 18.965 17.326C17.64 15.684 17 13.5 17 11.5C17 8.806 17.904 6.128 19.608 4.044C21.315 1.959 23.761 0.509 26.408 0.00900046C26.953 -0.0949996 27.213 0.646999 26.766 0.924999C25.728 1.573 25.032 2.778 25 4.001C24.983 4.64 25.132 5.307 25.388 5.927C25.642 6.548 26.002 7.138 26.408 7.711C27.11 8.704 27.954 9.644 28.668 10.734C29.384 11.827 30 13.11 30 14.5C30 16.01 29.415 17.365 28.38 18.375Z" fill="#B04252"/>
</svg>
