<svg width="30" height="20" viewBox="0 0 30 20" fill="none" xmlns="http://www.w3.org/2000/svg">
<path d="M18.62 1.625C19.65 0.62 21.07 7.11621e-07 22.5 9.61651e-07C23.576 1.14978e-06 24.632 0.213001 25.585 0.687001C26.541 1.161 27.372 1.854 28.035 2.674C29.36 4.316 30 6.5 30 8.5C30 11.194 29.096 13.872 27.392 15.956C25.685 18.041 23.239 19.491 20.592 19.991C20.047 20.095 19.787 19.353 20.234 19.075C21.272 18.427 21.968 17.222 22 15.999C22.017 15.36 21.868 14.693 21.612 14.073C21.358 13.452 20.998 12.862 20.592 12.289C19.89 11.296 19.046 10.356 18.332 9.266C17.616 8.173 17 6.89 17 5.5C17 3.99 17.585 2.635 18.62 1.625Z" fill="#B04252"/>
<path d="M1.62 1.625C2.65 0.62 4.07 7.11621e-07 5.5 9.61651e-07C6.576 1.14978e-06 7.632 0.213001 8.585 0.687001C9.541 1.161 10.372 1.854 11.035 2.674C12.36 4.316 13 6.5 13 8.5C13 11.194 12.096 13.872 10.392 15.956C8.685 18.041 6.239 19.491 3.592 19.991C3.047 20.095 2.787 19.353 3.234 19.075C4.272 18.427 4.968 17.222 5 15.999C5.017 15.36 4.868 14.693 4.612 14.073C4.358 13.452 3.998 12.862 3.592 12.289C2.89 11.296 2.046 10.356 1.332 9.266C0.615999 8.173 -1.20469e-06 6.89 -9.61651e-07 5.5C-6.97634e-07 3.99 0.585 2.635 1.62 1.625Z" fill="#B04252"/>
</svg>
