<svg width="594" height="58" viewBox="0 0 594 58" fill="none" xmlns="http://www.w3.org/2000/svg">
<path fill-rule="evenodd" clip-rule="evenodd" d="M244.8 0.40392C239.247 1.035 232.216 2.66627 226.059 4.7511C217.346 7.7022 211.748 11.4151 209.074 16.0147C207.785 18.2308 207.635 22.2788 208.738 25.0324C210.529 29.5012 216.021 33.1674 223.977 35.205C228.439 36.3477 242.997 36.3241 248.34 35.166C257.788 33.1174 258.861 32.7166 285.04 21.467C288.847 19.8307 292.361 18.5536 292.848 18.6294C293.479 18.7275 294.144 19.6786 295.166 21.9451C296.454 24.8013 296.6 25.5141 296.609 28.9823C296.617 32.2816 296.452 33.216 295.469 35.4257C292.664 41.7342 287.299 45.9057 279.866 47.5596C275.873 48.4481 271.059 47.9001 268.047 46.2144C266.677 45.448 263.957 42.531 263.957 41.8295C263.957 41.5058 263.769 41.2407 263.54 41.2407C262.163 41.2407 264.28 45.2383 266.546 46.9168C269.599 49.1786 270.954 49.5423 276.242 49.5192C283.835 49.486 288.087 47.7449 292.836 42.7221C299.235 35.9546 301.071 27.5449 297.753 20.2003C296.986 18.5032 296.468 16.9963 296.6 16.8519C297.191 16.2081 309.176 11.9218 315.389 10.1321C325.432 7.23956 332.095 6.28159 342.175 6.28159C360.04 6.28159 371.806 9.8751 378.539 17.3881C384.542 24.0853 385.08 35.1505 379.754 42.3757C375.554 48.0749 368.827 51.7266 357.451 54.4829C354.11 55.2919 341.577 55.2942 338.502 54.4861C333.437 53.1554 330.82 51.7788 327.132 48.5049C325.718 47.25 323.605 43.7568 323.065 41.7832C322.629 40.1864 322.631 39.3965 323.076 37.4701C323.674 34.8799 325.675 31.5652 327.552 30.0578C335.758 23.4642 353.191 23.1981 359.246 29.5734C360.681 31.0848 362.209 34.3001 362.282 35.9637C362.314 36.691 362.429 36.5757 362.748 35.4942C363.722 32.1935 360.226 27.1108 355.287 24.6483C354.053 24.0326 351.281 23.1891 349.126 22.7727C345.462 22.0649 344.929 22.0654 340.901 22.7809C328.816 24.9279 320.842 31.1266 320.276 38.8153C319.702 46.6098 325.811 53.2348 336.398 56.2994C341.029 57.6396 350.14 57.9357 355.457 56.9191C363.718 55.3392 368.363 53.5885 375.52 49.3584C378.751 47.4484 382.893 42.8624 384.4 39.5258C387.603 32.4332 385.891 22.8663 380.225 16.1945C375.879 11.0769 370.527 7.91104 362.24 5.55562C355.981 3.77634 349.545 3.00769 340.792 2.99361C327.098 2.97137 315.791 5.49251 297.689 12.6046C295.743 13.3697 293.902 13.9962 293.599 13.9976C293.297 13.9989 291.892 13.1009 290.476 12.0017C287.509 9.69849 282.588 6.80824 279.574 5.59875C278.428 5.13929 277.304 4.62353 277.075 4.45282C276.846 4.28211 276.284 4.02468 275.826 3.88076C271.396 2.48694 270.024 2.0974 267.497 1.51671C261.039 0.0325396 251.976 -0.411943 244.8 0.40392ZM277.7 6.62482C271.697 4.34431 267.467 3.42266 259.584 2.67717C244.841 1.2838 229.294 4.14817 218.466 10.2533C213.624 12.9833 210.234 17.6038 210.234 21.4733C210.234 27.9757 217.475 32.4823 230.357 33.9978C238.212 34.9217 249.93 33.1901 259.167 29.74C262.34 28.5551 274.351 23.1173 280.462 20.1004C281.179 19.7463 283.6 18.6512 285.843 17.6678C288.085 16.684 290.064 15.5975 290.241 15.2534C290.928 13.9149 283.579 8.85902 277.7 6.62482Z" fill="#464646"/>
<line x1="177" y1="29.5" x2="-4.37114e-08" y2="29.5" stroke="#464646"/>
<line x1="594" y1="29.5" x2="417" y2="29.5" stroke="#464646"/>
</svg>
