<svg width="536" height="36" viewBox="0 0 536 36" fill="none" xmlns="http://www.w3.org/2000/svg">
<path d="M260.146 22.7441C259.788 22.6468 259.412 22.7052 259.312 22.8735C259.212 23.0418 259.505 23.1796 259.963 23.1796C260.962 23.1796 261.043 22.987 260.146 22.7441Z" fill="#B04252"/>
<path d="M218.117 20.0683C218.105 20.5785 218.969 21.5672 219.899 22.1058C220.858 22.6613 223.388 22.5859 224.227 21.9767C224.626 21.6868 225.841 20.5464 226.925 19.4425C228.485 17.8554 229.111 17.4354 229.917 17.4354C230.477 17.4354 231.595 17.1042 232.401 16.6998C233.946 15.9246 235.916 15.7655 238.8 16.1831C240.286 16.3984 240.329 16.3865 239.289 16.052C238.662 15.85 237.96 15.5232 237.729 15.3259C237.499 15.1282 236.032 14.9606 234.47 14.9535C231.153 14.938 229.151 15.7226 226.426 18.1075C224.143 20.1054 222.507 20.8924 220.635 20.8924C219.468 20.8924 218.926 20.7255 218.587 20.2619C218.302 19.8716 218.123 19.7979 218.117 20.0683Z" fill="#B04252"/>
<path d="M258.272 21.9422C258.048 21.8483 257.681 21.8483 257.457 21.9422C257.233 22.0358 257.416 22.1125 257.864 22.1125C258.312 22.1125 258.496 22.0358 258.272 21.9422Z" fill="#B04252"/>
<path d="M217.944 17.3131C217.675 17.4202 217.455 17.7381 217.455 18.0196C217.455 18.4366 217.546 18.4535 217.944 18.1112C218.212 17.8797 218.432 17.5617 218.432 17.4046C218.432 17.2475 218.212 17.2063 217.944 17.3131Z" fill="#B04252"/>
<path d="M245.888 17.8875C245.664 17.7936 245.298 17.7936 245.073 17.8875C244.849 17.9811 245.033 18.0578 245.481 18.0578C245.929 18.0578 246.112 17.9811 245.888 17.8875Z" fill="#B04252"/>
<path fill-rule="evenodd" clip-rule="evenodd" d="M263.08 31.1888C263.077 33.4057 264.174 34.6857 266.819 35.5524C269.902 36.5627 273.181 34.5823 273.181 31.7102C273.181 29.5142 272.55 28.5552 270.293 27.3189C269.324 26.7884 268.549 26.7779 269.433 27.3074C270.234 27.7865 270.521 28.0886 271.645 29.6314C273.356 31.9825 272.463 34.2103 269.67 34.5529C268.213 34.732 267.976 34.6563 266.886 33.6639C265.596 32.4887 264.878 30.5313 265.22 29.1188C265.523 27.8669 266.835 26.5586 267.788 26.5586C268.411 26.5586 268.618 26.3836 268.618 25.8588C268.618 25.007 268.94 24.6728 271.178 23.1996L272.922 22.0507L274.925 22.7545C277.39 23.6202 281.264 25.1029 282.143 25.5158C284.247 26.5059 294.532 30.1883 298.6 31.4078C309.049 34.5407 318.316 36.0336 327.105 35.9994C329.978 35.9886 333.062 35.8244 333.958 35.6348C334.854 35.4453 336.321 35.2189 337.217 35.1317C338.113 35.0445 339.14 34.8411 339.498 34.6793C339.857 34.5174 340.641 34.2974 341.242 34.1903C343.415 33.8028 347.256 31.5372 349.314 29.428C352.783 25.874 354 22.4275 354 16.1588C354 8.38785 351.442 4.29119 345.098 1.89989C343.626 1.34473 339.603 0.541203 338.296 0.540863C336.214 0.540188 332.139 1.62585 330.536 2.60778C330.268 2.77267 329.751 3.04232 329.389 3.20687C329.026 3.37143 328.116 4.03744 327.367 4.68653L326.004 5.86713L320.292 5.68907C314.554 5.51066 311.498 5.7536 305.769 6.84366C301.724 7.61339 294.108 9.8506 291.593 11.0076C291.235 11.1725 290.355 11.5644 289.638 11.8783C288.921 12.1922 287.601 12.7944 286.705 13.2171C283.226 14.8569 282.835 15.0015 282.334 14.838C281.304 14.5014 279.847 13.9827 279.21 13.7249C276.213 12.5139 275.464 12.2024 274.321 11.6891C273.604 11.3671 272.688 10.9974 272.285 10.8677C271.308 10.5534 271.337 9.47148 272.366 7.90161C272.971 6.97814 273.181 6.21653 273.181 4.93928C273.181 1.84617 271.64 0.498299 268.104 0.498299C266.481 0.498299 265.784 0.662514 265.024 1.22342C263.812 2.11817 262.984 4.05634 263.259 5.3542C263.482 6.40878 264.918 7.97426 265.662 7.97426C265.988 7.97426 265.903 7.75023 265.385 7.25048C264.203 6.10839 263.688 4.52975 264.115 3.35623C264.711 1.71777 266.642 1.13591 268.8 1.94484C270.232 2.48209 270.9 3.79752 270.9 6.08339C270.9 8.24593 270.181 9.32585 268.742 9.32585C268.034 9.32585 267.954 9.40966 268.277 9.8131C268.593 10.2084 268.414 10.5845 267.326 11.8084C266.589 12.6376 265.489 13.5607 264.882 13.8598C263.867 14.3588 263.65 14.3588 262.206 13.8581C261.341 13.5587 260.194 13.1157 259.657 12.8738C259.119 12.6318 256.699 11.6729 254.28 10.7427C246.19 7.63265 245.912 7.535 238.8 5.30691C234.904 4.08643 228.863 2.55474 225.439 1.91916C217.461 0.439171 208.365 -0.379906 206.048 0.173908C205.242 0.366508 203.262 0.532433 201.649 0.542908C199.599 0.556423 198.526 0.711166 198.084 1.05819C197.736 1.33087 197.086 1.55423 196.641 1.55423C195.064 1.55423 191.948 2.83046 189.755 4.37532C185.698 7.23157 183.105 11.0174 182.237 15.3489C181.782 17.6233 182.017 23.1506 182.643 24.8698C184.398 29.6919 188.536 33.4818 193.516 34.8266C196.063 35.5142 200.763 35.4916 203.257 34.7796C205.365 34.1778 207.676 32.7725 209.796 30.8029C210.629 30.0301 211.277 29.675 211.589 29.8203C212.534 30.2603 221.561 30.3393 224.95 29.9372C231.536 29.1557 232.302 29.0252 238.637 27.6078C241.417 26.9857 247.282 24.8052 250.627 23.1499C252.642 22.1524 254.43 21.4901 255.108 21.4901C255.728 21.4901 256.233 21.3763 256.23 21.2367C256.215 20.4906 255.558 20.2065 253.798 20.1855C252.059 20.1646 251.404 19.9676 248.989 18.7373C248.677 18.5788 248.017 18.4514 247.522 18.4541C246.821 18.4582 246.73 18.5319 247.11 18.787C247.379 18.9671 247.929 19.1167 248.332 19.1198C248.736 19.1225 249.065 19.2769 249.065 19.4628C249.065 19.6486 249.347 19.8007 249.691 19.8007C250.407 19.8007 252.319 20.8519 252.322 21.2472C252.323 21.3925 252.067 21.5966 251.754 21.701C251.44 21.8054 250.597 22.1757 249.88 22.5241C248.077 23.4003 243.985 24.9999 242.222 25.5179C241.415 25.7547 240.531 26.0666 240.256 26.2105C239.981 26.3548 239.248 26.5806 238.626 26.7123C238.005 26.8441 237.057 27.0854 236.519 27.2486C232.754 28.39 229.856 28.6644 223.458 28.4853C215.085 28.2504 212.1 27.5226 212.785 25.8828C213.13 25.057 213.308 20.5863 213.064 18.8961C212.886 17.6702 212.525 16.9971 211.398 15.7952C210.607 14.9508 209.959 14.1307 209.959 13.9723C209.959 13.8138 209.451 13.4637 208.829 13.1944C204.224 11.1995 199.357 15.7374 200.525 20.936C201.156 23.7415 203.106 26.0572 206.375 27.8825C207.36 28.4329 208.443 29.0955 208.781 29.3547C209.376 29.8115 209.371 29.8497 208.625 30.5711C208.201 30.9806 207.102 31.697 206.183 32.1629C198.816 35.9001 188.743 31.9622 184.932 23.8554C183.805 21.4594 183.74 21.1367 183.733 17.9422C183.729 15.9061 183.912 13.9591 184.196 13.0427C184.771 11.1846 186.411 8.45408 187.676 7.25015C189.066 5.92762 191.976 4.1094 193.828 3.40725C194.724 3.06733 195.604 2.68144 195.783 2.54966C195.963 2.41788 196.623 2.23476 197.25 2.14251C197.877 2.05027 199.27 1.78805 200.346 1.55963C202.65 1.07035 213.703 1.27647 215.499 1.84211C216.127 2.03978 218.326 2.59393 220.388 3.0734C223.793 3.86543 229.144 5.24304 231.631 5.96817C233.681 6.56624 243.399 9.73471 244.165 10.055C244.607 10.2399 246.22 10.8238 247.75 11.3529C249.28 11.882 252.512 13.1383 254.931 14.1449C260.109 16.2984 260.34 16.6349 257.879 18.443C256.998 19.0904 256.341 19.6858 256.419 19.7665C256.615 19.9693 260.145 18.0277 260.145 17.7172C260.145 17.579 260.638 17.3702 261.24 17.2529C262.076 17.0904 262.844 17.2864 264.486 18.0824C265.668 18.6559 266.779 19.1249 266.953 19.1249C267.62 19.1249 271.551 21.1979 271.551 21.5496C271.551 21.9902 270.021 23.5175 269.579 23.5175C269.409 23.5175 269.27 23.652 269.27 23.8159C269.27 23.9801 269.013 24.2038 268.7 24.3129C268.386 24.4224 267.879 24.7015 267.572 24.9336C267.118 25.2776 266.665 25.2374 265.128 24.715C264.09 24.3623 263.102 23.9487 262.932 23.7956C262.762 23.6425 262.175 23.5277 261.628 23.5405L260.634 23.5631L261.449 23.9176C265.164 25.5334 265.916 26.2714 264.911 27.3135C263.937 28.3228 263.081 30.1356 263.08 31.1888ZM336.621 34.5684C338.085 34.3434 339.392 34.0457 339.526 33.9068C339.66 33.768 340.1 33.6544 340.504 33.6544C340.907 33.6544 341.653 33.4405 342.16 33.179C342.668 32.9171 343.523 32.5015 344.061 32.2548C348.335 30.2937 351.749 25.5929 352.689 20.3724C354.126 12.3913 347.168 3.30014 338.799 2.22393C336.489 1.92692 332.166 2.15535 332.166 2.57468C332.166 2.71051 331.744 2.90886 331.229 3.01563C330.26 3.21668 327.5 5.83841 327.775 6.29829C327.86 6.44156 328.626 6.97273 329.477 7.47924C331.548 8.71019 334.154 11.5252 335.1 13.5533C335.524 14.4602 335.934 15.9939 336.011 16.9617C336.267 20.1676 334.114 23.1174 331.094 23.6983C328.257 24.2436 325.735 22.5707 324.225 19.1421C323.655 17.8469 323.557 17.0181 323.607 13.8875C323.64 11.8432 323.709 9.80397 323.761 9.35592C323.891 8.23714 322.946 8.00095 317.338 7.75091C309.255 7.39105 302.148 8.60343 292.082 12.0598C286.988 13.8091 286.156 14.1453 285.488 14.7227C284.67 15.43 284.745 15.5709 286.298 16.2419C288.402 17.1515 288.828 17.3053 290.942 17.9182C292.017 18.2301 293.19 18.6173 293.549 18.7789C293.907 18.9404 294.64 19.1924 295.178 19.3394L296.156 19.6067L294.891 19.7267C294.195 19.7929 293.469 19.6844 293.277 19.4857C293.086 19.2874 292.629 19.1198 292.261 19.1137C291.529 19.1019 288.285 18.004 287.948 17.654C287.832 17.5337 287.39 17.4354 286.965 17.4354C286.54 17.4354 285.841 17.1962 285.411 16.9035C284.018 15.9581 282.032 16.15 280.024 17.4242C279.039 18.05 277.967 18.7957 277.644 19.0813C277.081 19.5783 277.089 19.627 277.807 20.2C278.22 20.5298 278.657 20.8029 278.779 20.8069C278.9 20.811 280.11 21.3465 281.468 21.997C282.827 22.6474 284.025 23.1796 284.132 23.1796C284.303 23.1796 285.254 23.5878 287.357 24.565C288.202 24.958 299.116 28.8948 300.392 29.2675C300.93 29.4243 302.176 29.8031 303.162 30.1092C304.148 30.4153 305.588 30.8032 306.361 30.9715C307.135 31.1395 307.868 31.3392 307.991 31.4148C308.405 31.6706 316.339 33.2726 319.782 33.7953C321.664 34.0808 324.084 34.4508 325.159 34.6171C328.027 35.0604 333.571 35.0368 336.621 34.5684ZM297.296 20.5319C297.924 20.7089 298.803 20.9809 299.252 21.136C300.531 21.579 305.64 21.5344 307.103 21.0678C307.851 20.8292 309.553 19.6581 311.018 18.3751C313.836 15.9064 315.655 15.0809 317.111 15.6087C317.764 15.8452 318.013 16.1865 318.079 16.9346C318.128 17.4888 318.25 18.3203 318.349 18.7822C318.664 20.2487 319.229 18.6204 318.987 16.9441C318.732 15.183 317.802 14.2058 315.977 13.7803C313.673 13.2438 312.015 13.8743 308.81 16.5048C304.521 20.025 304.002 20.2379 299.743 20.2227C296.905 20.2126 296.394 20.2771 297.296 20.5319ZM334.654 17.3391C334.864 19.2475 334.437 20.5917 333.403 21.2685C331.742 22.3548 329.981 22.1622 328.119 20.6897C325.745 18.812 324.67 16.271 324.67 12.5349C324.67 9.51508 325.044 9.03121 326.924 9.6151C330.989 10.8782 334.306 14.1923 334.654 17.3391ZM279.265 17.0451C281.051 16.1037 281.467 14.7322 279.966 14.7322C279.635 14.7322 279.109 14.5906 278.798 14.4173C278.487 14.2443 277.084 13.6266 275.68 13.0447C274.276 12.4625 272.622 11.6921 272.004 11.3319C271.386 10.9721 270.642 10.6774 270.35 10.6774C269.248 10.6774 265.527 14.1547 265.81 14.9201C265.957 15.3161 266.728 15.7388 269.759 17.0863C270.118 17.2455 271.507 17.8334 272.847 18.3926L275.284 19.4094L276.595 18.5852C277.316 18.1321 278.518 17.4391 279.265 17.0451ZM211.674 20.1683C212.343 22.3957 212.396 25.135 211.787 25.9673C210.872 27.2172 207.845 26.2474 204.894 23.7588C202.711 21.9179 201.736 20.3535 201.555 18.398C201.373 16.4295 202.12 15.2259 203.834 14.7275C206.866 13.8462 210.54 16.3963 211.674 20.1683Z" fill="#B04252"/>
<line y1="17.5" x2="155" y2="17.5" stroke="#B04252"/>
<line x1="381" y1="17.5" x2="536" y2="17.5" stroke="#B04252"/>
</svg>
